STARTFONT 2.1
COMMENT
COMMENT Converted from OpenType font "minecraft_regular.otf" by "otf2bdf 3.0".
COMMENT
FONT -FreeType-Minecraft-Medium-R-Normal--12-120-75-75-P-61-ISO10646-1
SIZE 12 75 75
FONTBOUNDINGBOX 10 11 0 -2
STARTPROPERTIES 19
FOUNDRY "FreeType"
FAMILY_NAME "Minecraft"
WEIGHT_NAME "Medium"
SLANT "R"
SETWIDTH_NAME "Normal"
ADD_STYLE_NAME ""
PIXEL_SIZE 12
POINT_SIZE 120
RESOLUTION_X 75
RESOLUTION_Y 75
SPACING "P"
AVERAGE_WIDTH 61
CHARSET_REGISTRY "ISO10646"
CHARSET_ENCODING "1"
CAP_HEIGHT 9
FONT_ASCENT 13
FONT_DESCENT 2
COPYRIGHT "Copyright © 2017 by Jacob Debono."
_OTF_FONTFILE "minecraft_regular.otf"
_OTF_PSNAME "Minecraft-Regular"
ENDPROPERTIES
CHARS 156
STARTCHAR 0020
ENCODING 32
SWIDTH 400 0
DWIDTH 5 0
BBX 0 0 0 0
BITMAP
ENDCHAR
STARTCHAR 0021
ENCODING 33
SWIDTH 240 0
DWIDTH 3 0
BBX 1 9 0 0
BITMAP
80
80
80
80
80
80
80
00
80
ENDCHAR
STARTCHAR 0022
ENCODING 34
SWIDTH 480 0
DWIDTH 6 0
BBX 5 3 0 5
BITMAP
48
48
B0
ENDCHAR
STARTCHAR 0023
ENCODING 35
SWIDTH 640 0
DWIDTH 8 0
BBX 6 9 0 0
BITMAP
48
48
48
FC
48
FC
48
48
48
ENDCHAR
STARTCHAR 0024
ENCODING 36
SWIDTH 640 0
DWIDTH 8 0
BBX 6 8 0 0
BITMAP
30
7C
80
78
04
00
F8
30
ENDCHAR
STARTCHAR 0025
ENCODING 37
SWIDTH 640 0
DWIDTH 8 0
BBX 6 9 0 0
BITMAP
04
80
88
08
30
00
40
44
84
ENDCHAR
STARTCHAR 0026
ENCODING 38
SWIDTH 640 0
DWIDTH 8 0
BBX 6 9 0 0
BITMAP
30
00
48
30
74
B8
88
88
74
ENDCHAR
STARTCHAR 0027
ENCODING 39
SWIDTH 320 0
DWIDTH 4 0
BBX 2 3 0 5
BITMAP
40
40
80
ENDCHAR
STARTCHAR 0028
ENCODING 40
SWIDTH 480 0
DWIDTH 6 0
BBX 5 9 0 0
BITMAP
38
00
40
80
80
80
80
40
38
ENDCHAR
STARTCHAR 0029
ENCODING 41
SWIDTH 480 0
DWIDTH 6 0
BBX 5 9 0 0
BITMAP
C0
00
30
08
08
08
08
30
C0
ENDCHAR
STARTCHAR 002A
ENCODING 42
SWIDTH 480 0
DWIDTH 6 0
BBX 5 3 0 3
BITMAP
88
70
88
ENDCHAR
STARTCHAR 002B
ENCODING 43
SWIDTH 640 0
DWIDTH 8 0
BBX 6 6 0 1
BITMAP
30
30
FC
30
30
30
ENDCHAR
STARTCHAR 002C
ENCODING 44
SWIDTH 240 0
DWIDTH 3 0
BBX 1 4 0 -1
BITMAP
80
80
80
80
ENDCHAR
STARTCHAR 002D
ENCODING 45
SWIDTH 640 0
DWIDTH 8 0
BBX 6 1 0 4
BITMAP
FC
ENDCHAR
STARTCHAR 002E
ENCODING 46
SWIDTH 240 0
DWIDTH 3 0
BBX 1 2 0 0
BITMAP
80
80
ENDCHAR
STARTCHAR 002F
ENCODING 47
SWIDTH 640 0
DWIDTH 8 0
BBX 6 9 0 0
BITMAP
04
00
08
08
30
00
40
40
80
ENDCHAR
STARTCHAR 0030
ENCODING 48
SWIDTH 640 0
DWIDTH 8 0
BBX 6 9 0 0
BITMAP
78
84
84
8C
B4
C4
84
84
78
ENDCHAR
STARTCHAR 0031
ENCODING 49
SWIDTH 640 0
DWIDTH 8 0
BBX 6 8 0 0
BITMAP
30
70
30
30
30
30
30
FC
ENDCHAR
STARTCHAR 0032
ENCODING 50
SWIDTH 640 0
DWIDTH 8 0
BBX 6 9 0 0
BITMAP
78
00
84
04
38
40
84
84
FC
ENDCHAR
STARTCHAR 0033
ENCODING 51
SWIDTH 640 0
DWIDTH 8 0
BBX 6 9 0 0
BITMAP
78
00
84
04
38
00
04
84
78
ENDCHAR
STARTCHAR 0034
ENCODING 52
SWIDTH 640 0
DWIDTH 8 0
BBX 6 9 0 0
BITMAP
0C
04
34
44
84
FC
04
04
04
ENDCHAR
STARTCHAR 0035
ENCODING 53
SWIDTH 640 0
DWIDTH 8 0
BBX 6 9 0 0
BITMAP
FC
80
80
F8
04
04
04
84
78
ENDCHAR
STARTCHAR 0036
ENCODING 54
SWIDTH 640 0
DWIDTH 8 0
BBX 6 9 0 0
BITMAP
38
00
40
80
F8
80
84
84
78
ENDCHAR
STARTCHAR 0037
ENCODING 55
SWIDTH 640 0
DWIDTH 8 0
BBX 6 9 0 0
BITMAP
FC
84
84
04
08
30
30
30
30
ENDCHAR
STARTCHAR 0038
ENCODING 56
SWIDTH 640 0
DWIDTH 8 0
BBX 6 9 0 0
BITMAP
78
80
84
84
78
00
84
84
78
ENDCHAR
STARTCHAR 0039
ENCODING 57
SWIDTH 640 0
DWIDTH 8 0
BBX 6 9 0 0
BITMAP
78
84
84
84
7C
04
04
08
70
ENDCHAR
STARTCHAR 003A
ENCODING 58
SWIDTH 240 0
DWIDTH 3 0
BBX 1 7 0 0
BITMAP
80
80
00
00
00
80
80
ENDCHAR
STARTCHAR 003B
ENCODING 59
SWIDTH 240 0
DWIDTH 3 0
BBX 1 8 0 -1
BITMAP
80
80
00
00
80
80
80
80
ENDCHAR
STARTCHAR 003C
ENCODING 60
SWIDTH 480 0
DWIDTH 6 0
BBX 5 9 0 0
BITMAP
08
00
30
40
80
40
00
30
08
ENDCHAR
STARTCHAR 003D
ENCODING 61
SWIDTH 640 0
DWIDTH 8 0
BBX 6 5 0 1
BITMAP
FC
00
00
00
FC
ENDCHAR
STARTCHAR 003E
ENCODING 62
SWIDTH 480 0
DWIDTH 6 0
BBX 5 9 0 0
BITMAP
80
00
40
30
08
30
00
40
80
ENDCHAR
STARTCHAR 003F
ENCODING 63
SWIDTH 640 0
DWIDTH 8 0
BBX 6 9 0 0
BITMAP
78
00
84
04
08
30
00
00
30
ENDCHAR
STARTCHAR 0040
ENCODING 64
SWIDTH 720 0
DWIDTH 9 0
BBX 7 9 0 0
BITMAP
7C
82
82
BA
BA
BE
80
80
7C
ENDCHAR
STARTCHAR 0041
ENCODING 65
SWIDTH 640 0
DWIDTH 8 0
BBX 6 9 0 0
BITMAP
78
84
84
FC
84
84
84
84
84
ENDCHAR
STARTCHAR 0042
ENCODING 66
SWIDTH 640 0
DWIDTH 8 0
BBX 6 9 0 0
BITMAP
F8
80
84
F8
84
84
84
84
F8
ENDCHAR
STARTCHAR 0043
ENCODING 67
SWIDTH 640 0
DWIDTH 8 0
BBX 6 9 0 0
BITMAP
78
80
84
80
80
80
80
84
78
ENDCHAR
STARTCHAR 0044
ENCODING 68
SWIDTH 640 0
DWIDTH 8 0
BBX 6 9 0 0
BITMAP
F8
84
84
84
84
84
84
84
F8
ENDCHAR
STARTCHAR 0045
ENCODING 69
SWIDTH 640 0
DWIDTH 8 0
BBX 6 9 0 0
BITMAP
FC
80
80
F0
80
80
80
80
FC
ENDCHAR
STARTCHAR 0046
ENCODING 70
SWIDTH 640 0
DWIDTH 8 0
BBX 6 9 0 0
BITMAP
FC
80
80
F0
80
80
80
80
80
ENDCHAR
STARTCHAR 0047
ENCODING 71
SWIDTH 640 0
DWIDTH 8 0
BBX 6 9 0 0
BITMAP
7C
80
80
8C
84
84
84
84
78
ENDCHAR
STARTCHAR 0048
ENCODING 72
SWIDTH 640 0
DWIDTH 8 0
BBX 6 9 0 0
BITMAP
84
84
84
FC
84
84
84
84
84
ENDCHAR
STARTCHAR 0049
ENCODING 73
SWIDTH 400 0
DWIDTH 5 0
BBX 4 9 0 0
BITMAP
F0
40
40
40
40
40
40
40
F0
ENDCHAR
STARTCHAR 004A
ENCODING 74
SWIDTH 640 0
DWIDTH 8 0
BBX 6 9 0 0
BITMAP
04
04
04
04
04
04
04
84
78
ENDCHAR
STARTCHAR 004B
ENCODING 75
SWIDTH 640 0
DWIDTH 8 0
BBX 6 9 0 0
BITMAP
84
80
88
F0
88
84
84
84
84
ENDCHAR
STARTCHAR 004C
ENCODING 76
SWIDTH 640 0
DWIDTH 8 0
BBX 6 9 0 0
BITMAP
80
80
80
80
80
80
80
80
FC
ENDCHAR
STARTCHAR 004D
ENCODING 77
SWIDTH 640 0
DWIDTH 8 0
BBX 6 8 0 0
BITMAP
84
CC
B4
84
84
84
84
84
ENDCHAR
STARTCHAR 004E
ENCODING 78
SWIDTH 640 0
DWIDTH 8 0
BBX 6 8 0 0
BITMAP
84
C4
B4
8C
84
84
84
84
ENDCHAR
STARTCHAR 004F
ENCODING 79
SWIDTH 640 0
DWIDTH 8 0
BBX 6 9 0 0
BITMAP
78
84
84
84
84
84
84
84
78
ENDCHAR
STARTCHAR 0050
ENCODING 80
SWIDTH 640 0
DWIDTH 8 0
BBX 6 9 0 0
BITMAP
F8
80
84
F8
80
80
80
80
80
ENDCHAR
STARTCHAR 0051
ENCODING 81
SWIDTH 640 0
DWIDTH 8 0
BBX 6 9 0 0
BITMAP
78
00
84
84
84
84
84
88
74
ENDCHAR
STARTCHAR 0052
ENCODING 82
SWIDTH 640 0
DWIDTH 8 0
BBX 6 9 0 0
BITMAP
F8
80
84
F8
84
84
84
84
84
ENDCHAR
STARTCHAR 0053
ENCODING 83
SWIDTH 640 0
DWIDTH 8 0
BBX 6 9 0 0
BITMAP
7C
00
80
78
04
04
04
84
78
ENDCHAR
STARTCHAR 0054
ENCODING 84
SWIDTH 640 0
DWIDTH 8 0
BBX 6 9 0 0
BITMAP
FC
30
30
30
30
30
30
30
30
ENDCHAR
STARTCHAR 0055
ENCODING 85
SWIDTH 640 0
DWIDTH 8 0
BBX 6 9 0 0
BITMAP
84
84
84
84
84
84
84
84
78
ENDCHAR
STARTCHAR 0056
ENCODING 86
SWIDTH 640 0
DWIDTH 8 0
BBX 6 9 0 0
BITMAP
84
84
84
84
84
00
48
48
30
ENDCHAR
STARTCHAR 0057
ENCODING 87
SWIDTH 640 0
DWIDTH 8 0
BBX 6 8 0 0
BITMAP
84
84
84
84
B4
84
CC
84
ENDCHAR
STARTCHAR 0058
ENCODING 88
SWIDTH 640 0
DWIDTH 8 0
BBX 6 9 0 0
BITMAP
84
00
48
30
48
84
84
84
84
ENDCHAR
STARTCHAR 0059
ENCODING 89
SWIDTH 640 0
DWIDTH 8 0
BBX 6 9 0 0
BITMAP
84
00
48
30
30
30
30
30
30
ENDCHAR
STARTCHAR 005A
ENCODING 90
SWIDTH 640 0
DWIDTH 8 0
BBX 6 9 0 0
BITMAP
FC
04
04
08
30
40
80
80
FC
ENDCHAR
STARTCHAR 005B
ENCODING 91
SWIDTH 400 0
DWIDTH 5 0
BBX 4 9 0 0
BITMAP
F0
80
80
80
80
80
80
80
F0
ENDCHAR
STARTCHAR 005C
ENCODING 92
SWIDTH 640 0
DWIDTH 8 0
BBX 6 9 0 0
BITMAP
80
00
40
40
30
00
08
08
04
ENDCHAR
STARTCHAR 005D
ENCODING 93
SWIDTH 400 0
DWIDTH 5 0
BBX 4 9 0 0
BITMAP
F0
30
30
30
30
30
30
30
F0
ENDCHAR
STARTCHAR 005E
ENCODING 94
SWIDTH 640 0
DWIDTH 8 0
BBX 6 4 0 5
BITMAP
30
00
48
84
ENDCHAR
STARTCHAR 005F
ENCODING 95
SWIDTH 640 0
DWIDTH 8 0
BBX 6 1 0 -1
BITMAP
FC
ENDCHAR
STARTCHAR 0061
ENCODING 97
SWIDTH 640 0
DWIDTH 8 0
BBX 6 6 0 0
BITMAP
78
04
7C
04
84
7C
ENDCHAR
STARTCHAR 0062
ENCODING 98
SWIDTH 640 0
DWIDTH 8 0
BBX 6 9 0 0
BITMAP
80
80
80
B8
C4
84
84
84
F8
ENDCHAR
STARTCHAR 0063
ENCODING 99
SWIDTH 640 0
DWIDTH 8 0
BBX 6 6 0 0
BITMAP
78
84
80
80
84
78
ENDCHAR
STARTCHAR 0064
ENCODING 100
SWIDTH 640 0
DWIDTH 8 0
BBX 6 9 0 0
BITMAP
04
04
04
74
8C
84
84
84
7C
ENDCHAR
STARTCHAR 0065
ENCODING 101
SWIDTH 640 0
DWIDTH 8 0
BBX 6 6 0 0
BITMAP
78
84
FC
80
80
7C
ENDCHAR
STARTCHAR 0066
ENCODING 102
SWIDTH 480 0
DWIDTH 6 0
BBX 5 9 0 0
BITMAP
38
40
40
F8
40
40
40
40
40
ENDCHAR
STARTCHAR 0067
ENCODING 103
SWIDTH 640 0
DWIDTH 8 0
BBX 6 7 0 -1
BITMAP
7C
84
84
84
7C
04
F8
ENDCHAR
STARTCHAR 0068
ENCODING 104
SWIDTH 640 0
DWIDTH 8 0
BBX 6 9 0 0
BITMAP
80
80
80
B8
C4
84
84
84
84
ENDCHAR
STARTCHAR 0069
ENCODING 105
SWIDTH 240 0
DWIDTH 3 0
BBX 1 9 0 0
BITMAP
80
00
80
80
80
80
80
80
80
ENDCHAR
STARTCHAR 006A
ENCODING 106
SWIDTH 640 0
DWIDTH 8 0
BBX 6 10 0 -1
BITMAP
04
00
00
04
04
04
04
04
84
78
ENDCHAR
STARTCHAR 006B
ENCODING 107
SWIDTH 480 0
DWIDTH 6 0
BBX 5 9 0 0
BITMAP
80
80
80
88
B0
C0
80
B0
88
ENDCHAR
STARTCHAR 006C
ENCODING 108
SWIDTH 320 0
DWIDTH 4 0
BBX 2 9 0 0
BITMAP
80
80
80
80
80
80
80
80
40
ENDCHAR
STARTCHAR 006D
ENCODING 109
SWIDTH 640 0
DWIDTH 8 0
BBX 6 6 0 0
BITMAP
C8
B4
B4
B4
84
84
ENDCHAR
STARTCHAR 006E
ENCODING 110
SWIDTH 640 0
DWIDTH 8 0
BBX 6 6 0 0
BITMAP
F8
84
84
84
84
84
ENDCHAR
STARTCHAR 006F
ENCODING 111
SWIDTH 640 0
DWIDTH 8 0
BBX 6 6 0 0
BITMAP
78
84
84
84
84
78
ENDCHAR
STARTCHAR 0070
ENCODING 112
SWIDTH 640 0
DWIDTH 8 0
BBX 6 7 0 -1
BITMAP
B8
C4
84
84
F8
80
80
ENDCHAR
STARTCHAR 0071
ENCODING 113
SWIDTH 640 0
DWIDTH 8 0
BBX 6 7 0 -1
BITMAP
74
8C
84
84
7C
04
04
ENDCHAR
STARTCHAR 0072
ENCODING 114
SWIDTH 640 0
DWIDTH 8 0
BBX 6 6 0 0
BITMAP
B8
C4
80
80
80
80
ENDCHAR
STARTCHAR 0073
ENCODING 115
SWIDTH 640 0
DWIDTH 8 0
BBX 6 6 0 0
BITMAP
7C
80
78
00
04
F8
ENDCHAR
STARTCHAR 0074
ENCODING 116
SWIDTH 400 0
DWIDTH 5 0
BBX 4 9 0 0
BITMAP
40
40
40
F0
40
40
40
40
30
ENDCHAR
STARTCHAR 0075
ENCODING 117
SWIDTH 640 0
DWIDTH 8 0
BBX 6 6 0 0
BITMAP
84
84
84
84
84
7C
ENDCHAR
STARTCHAR 0076
ENCODING 118
SWIDTH 640 0
DWIDTH 8 0
BBX 6 6 0 0
BITMAP
84
84
84
84
48
30
ENDCHAR
STARTCHAR 0077
ENCODING 119
SWIDTH 640 0
DWIDTH 8 0
BBX 6 6 0 0
BITMAP
84
84
B4
B4
B4
7C
ENDCHAR
STARTCHAR 0078
ENCODING 120
SWIDTH 640 0
DWIDTH 8 0
BBX 6 6 0 0
BITMAP
84
48
30
00
48
84
ENDCHAR
STARTCHAR 0079
ENCODING 121
SWIDTH 640 0
DWIDTH 8 0
BBX 6 7 0 -1
BITMAP
84
84
84
84
7C
04
F8
ENDCHAR
STARTCHAR 007A
ENCODING 122
SWIDTH 640 0
DWIDTH 8 0
BBX 6 6 0 0
BITMAP
FC
08
30
40
40
FC
ENDCHAR
STARTCHAR 007B
ENCODING 123
SWIDTH 480 0
DWIDTH 6 0
BBX 5 9 0 0
BITMAP
38
00
40
40
80
00
40
40
38
ENDCHAR
STARTCHAR 007C
ENCODING 124
SWIDTH 240 0
DWIDTH 3 0
BBX 1 9 0 0
BITMAP
80
80
80
80
00
80
80
80
80
ENDCHAR
STARTCHAR 007D
ENCODING 125
SWIDTH 480 0
DWIDTH 6 0
BBX 5 9 0 0
BITMAP
C0
00
30
30
08
00
30
30
C0
ENDCHAR
STARTCHAR 007E
ENCODING 126
SWIDTH 720 0
DWIDTH 9 0
BBX 7 3 0 6
BITMAP
72
00
8C
ENDCHAR
STARTCHAR 00A1
ENCODING 161
SWIDTH 240 0
DWIDTH 3 0
BBX 1 7 0 0
BITMAP
80
00
80
80
80
80
80
ENDCHAR
STARTCHAR 00A2
ENCODING 162
SWIDTH 480 0
DWIDTH 6 0
BBX 5 6 0 0
BITMAP
30
78
80
00
78
30
ENDCHAR
STARTCHAR 00A3
ENCODING 163
SWIDTH 640 0
DWIDTH 8 0
BBX 6 9 0 0
BITMAP
38
00
44
40
F8
40
40
40
FC
ENDCHAR
STARTCHAR 00A4
ENCODING 164
SWIDTH 400 0
DWIDTH 5 0
BBX 4 3 0 3
BITMAP
B0
40
B0
ENDCHAR
STARTCHAR 00A7
ENCODING 167
SWIDTH 640 0
DWIDTH 8 0
BBX 6 9 0 0
BITMAP
7C
00
80
78
84
78
00
04
F8
ENDCHAR
STARTCHAR 00AB
ENCODING 171
SWIDTH 640 0
DWIDTH 8 0
BBX 6 6 0 0
BITMAP
34
48
B0
00
48
34
ENDCHAR
STARTCHAR 00AC
ENCODING 172
SWIDTH 640 0
DWIDTH 8 0
BBX 6 2 0 2
BITMAP
FC
04
ENDCHAR
STARTCHAR 00AD
ENCODING 173
SWIDTH 320 0
DWIDTH 4 0
BBX 2 1 0 4
BITMAP
C0
ENDCHAR
STARTCHAR 00AE
ENCODING 174
SWIDTH 720 0
DWIDTH 9 0
BBX 7 6 0 0
BITMAP
7C
BA
B2
B2
CA
7C
ENDCHAR
STARTCHAR 00B1
ENCODING 177
SWIDTH 640 0
DWIDTH 8 0
BBX 6 9 0 0
BITMAP
30
30
30
FC
30
30
30
00
FC
ENDCHAR
STARTCHAR 00B6
ENCODING 182
SWIDTH 720 0
DWIDTH 9 0
BBX 7 9 0 0
BITMAP
7E
0A
8A
8A
7A
0A
0A
0A
0A
ENDCHAR
STARTCHAR 00B7
ENCODING 183
SWIDTH 320 0
DWIDTH 4 0
BBX 2 2 0 3
BITMAP
C0
C0
ENDCHAR
STARTCHAR 00B8
ENCODING 184
SWIDTH 400 0
DWIDTH 5 0
BBX 4 2 0 -2
BITMAP
30
C0
ENDCHAR
STARTCHAR 00BB
ENCODING 187
SWIDTH 640 0
DWIDTH 8 0
BBX 6 6 0 0
BITMAP
B0
48
34
00
48
B0
ENDCHAR
STARTCHAR 00BF
ENCODING 191
SWIDTH 640 0
DWIDTH 8 0
BBX 6 9 0 0
BITMAP
30
00
00
30
40
00
80
84
78
ENDCHAR
STARTCHAR 00C4
ENCODING 196
SWIDTH 640 0
DWIDTH 8 0
BBX 6 9 0 0
BITMAP
84
00
78
84
FC
84
84
84
84
ENDCHAR
STARTCHAR 00C5
ENCODING 197
SWIDTH 640 0
DWIDTH 8 0
BBX 6 9 0 0
BITMAP
30
00
00
78
84
FC
84
84
84
ENDCHAR
STARTCHAR 00C6
ENCODING 198
SWIDTH 640 0
DWIDTH 8 0
BBX 6 9 0 0
BITMAP
7C
B0
B0
F8
B0
B0
B0
B0
BC
ENDCHAR
STARTCHAR 00C7
ENCODING 199
SWIDTH 640 0
DWIDTH 8 0
BBX 6 11 0 -2
BITMAP
78
80
84
80
80
80
80
84
78
04
38
ENDCHAR
STARTCHAR 00D1
ENCODING 209
SWIDTH 640 0
DWIDTH 8 0
BBX 6 9 0 0
BITMAP
FC
00
00
84
C4
B4
84
8C
84
ENDCHAR
STARTCHAR 00D8
ENCODING 216
SWIDTH 640 0
DWIDTH 8 0
BBX 6 9 0 0
BITMAP
78
84
84
8C
B4
C4
84
84
78
ENDCHAR
STARTCHAR 00DC
ENCODING 220
SWIDTH 640 0
DWIDTH 8 0
BBX 6 9 0 0
BITMAP
84
00
00
84
84
84
84
84
78
ENDCHAR
STARTCHAR 00E0
ENCODING 224
SWIDTH 640 0
DWIDTH 8 0
BBX 6 9 0 0
BITMAP
C0
00
00
78
04
7C
04
84
7C
ENDCHAR
STARTCHAR 00E1
ENCODING 225
SWIDTH 640 0
DWIDTH 8 0
BBX 6 9 0 0
BITMAP
0C
00
00
78
04
7C
04
84
7C
ENDCHAR
STARTCHAR 00E2
ENCODING 226
SWIDTH 640 0
DWIDTH 8 0
BBX 6 9 0 0
BITMAP
78
00
84
78
04
7C
04
84
7C
ENDCHAR
STARTCHAR 00E5
ENCODING 229
SWIDTH 640 0
DWIDTH 8 0
BBX 6 9 0 0
BITMAP
30
00
00
78
04
7C
04
84
7C
ENDCHAR
STARTCHAR 00E6
ENCODING 230
SWIDTH 640 0
DWIDTH 8 0
BBX 6 6 0 0
BITMAP
48
34
78
30
B0
7C
ENDCHAR
STARTCHAR 00E7
ENCODING 231
SWIDTH 640 0
DWIDTH 8 0
BBX 6 8 0 -2
BITMAP
78
84
80
80
84
78
04
38
ENDCHAR
STARTCHAR 00EA
ENCODING 234
SWIDTH 640 0
DWIDTH 8 0
BBX 6 9 0 0
BITMAP
78
00
84
78
84
FC
80
80
7C
ENDCHAR
STARTCHAR 00EB
ENCODING 235
SWIDTH 640 0
DWIDTH 8 0
BBX 6 9 0 0
BITMAP
48
00
00
78
84
FC
80
80
7C
ENDCHAR
STARTCHAR 00ED
ENCODING 237
SWIDTH 320 0
DWIDTH 4 0
BBX 2 9 0 0
BITMAP
C0
00
80
80
80
80
80
80
80
ENDCHAR
STARTCHAR 00EE
ENCODING 238
SWIDTH 400 0
DWIDTH 5 0
BBX 4 9 0 0
BITMAP
B0
00
40
40
40
40
40
40
40
ENDCHAR
STARTCHAR 00F1
ENCODING 241
SWIDTH 640 0
DWIDTH 8 0
BBX 6 9 0 0
BITMAP
FC
00
00
F8
84
84
84
84
84
ENDCHAR
STARTCHAR 00F2
ENCODING 242
SWIDTH 640 0
DWIDTH 8 0
BBX 6 9 0 0
BITMAP
C0
00
00
78
84
84
84
84
78
ENDCHAR
STARTCHAR 00F3
ENCODING 243
SWIDTH 640 0
DWIDTH 8 0
BBX 6 9 0 0
BITMAP
0C
00
00
78
84
84
84
84
78
ENDCHAR
STARTCHAR 00F4
ENCODING 244
SWIDTH 640 0
DWIDTH 8 0
BBX 6 9 0 0
BITMAP
78
00
84
78
84
84
84
84
78
ENDCHAR
STARTCHAR 00F6
ENCODING 246
SWIDTH 640 0
DWIDTH 8 0
BBX 6 9 0 0
BITMAP
48
00
00
78
84
84
84
84
78
ENDCHAR
STARTCHAR 00F7
ENCODING 247
SWIDTH 640 0
DWIDTH 8 0
BBX 6 6 0 1
BITMAP
30
00
FC
00
00
30
ENDCHAR
STARTCHAR 00F8
ENCODING 248
SWIDTH 640 0
DWIDTH 8 0
BBX 6 7 0 -1
BITMAP
78
8C
B4
84
C4
78
30
ENDCHAR
STARTCHAR 00F9
ENCODING 249
SWIDTH 640 0
DWIDTH 8 0
BBX 6 9 0 0
BITMAP
C0
00
00
84
84
84
84
84
7C
ENDCHAR
STARTCHAR 00FA
ENCODING 250
SWIDTH 640 0
DWIDTH 8 0
BBX 6 9 0 0
BITMAP
0C
00
00
84
84
84
84
84
7C
ENDCHAR
STARTCHAR 00FB
ENCODING 251
SWIDTH 640 0
DWIDTH 8 0
BBX 6 9 0 0
BITMAP
78
00
84
00
84
84
84
84
7C
ENDCHAR
STARTCHAR 00FC
ENCODING 252
SWIDTH 640 0
DWIDTH 8 0
BBX 6 9 0 0
BITMAP
48
00
00
84
84
84
84
84
7C
ENDCHAR
STARTCHAR 00FF
ENCODING 255
SWIDTH 640 0
DWIDTH 8 0
BBX 6 10 0 -1
BITMAP
48
00
00
84
84
84
84
7C
04
F8
ENDCHAR
STARTCHAR 0192
ENCODING 402
SWIDTH 640 0
DWIDTH 8 0
BBX 6 9 0 0
BITMAP
08
00
34
30
78
30
30
B0
40
ENDCHAR
STARTCHAR 03A9
ENCODING 937
SWIDTH 640 0
DWIDTH 8 0
BBX 6 9 0 0
BITMAP
78
84
84
84
84
84
48
48
CC
ENDCHAR
STARTCHAR 2014
ENCODING 8212
SWIDTH 640 0
DWIDTH 8 0
BBX 6 1 0 4
BITMAP
FC
ENDCHAR
STARTCHAR 2022
ENCODING 8226
SWIDTH 320 0
DWIDTH 4 0
BBX 2 2 0 3
BITMAP
C0
C0
ENDCHAR
STARTCHAR 2211
ENCODING 8721
SWIDTH 640 0
DWIDTH 8 0
BBX 6 9 0 0
BITMAP
FC
84
84
40
30
40
84
84
FC
ENDCHAR
STARTCHAR 221A
ENCODING 8730
SWIDTH 880 0
DWIDTH 11 0
BBX 10 9 0 0
BITMAP
07C0
0600
0600
0600
F600
7600
7600
3E00
0E00
ENDCHAR
STARTCHAR 221E
ENCODING 8734
SWIDTH 800 0
DWIDTH 10 0
BBX 9 5 0 1
BITMAP
7600
8980
8980
8980
7600
ENDCHAR
STARTCHAR 2248
ENCODING 8776
SWIDTH 800 0
DWIDTH 10 0
BBX 9 6 0 1
BITMAP
7B80
CE00
0000
7B80
4A00
CE00
ENDCHAR
STARTCHAR 2302
ENCODING 8962
SWIDTH 640 0
DWIDTH 8 0
BBX 6 6 0 0
BITMAP
30
48
84
84
84
FC
ENDCHAR
STARTCHAR 263A
ENCODING 9786
SWIDTH 880 0
DWIDTH 11 0
BBX 10 10 0 -1
BITMAP
7F80
8040
8040
B240
8040
BE40
8C40
8C40
8040
7F80
ENDCHAR
STARTCHAR 263B
ENCODING 9787
SWIDTH 880 0
DWIDTH 11 0
BBX 10 9 0 -1
BITMAP
7F80
FFC0
CDC0
FFC0
C1C0
C1C0
F3C0
FFC0
7F80
ENDCHAR
STARTCHAR 263C
ENCODING 9788
SWIDTH 880 0
DWIDTH 11 0
BBX 10 10 0 -1
BITMAP
8C40
0C00
4D80
3E00
F3C0
F3C0
33C0
3E00
4D80
8C40
ENDCHAR
STARTCHAR 2640
ENCODING 9792
SWIDTH 640 0
DWIDTH 8 0
BBX 6 10 0 -1
BITMAP
78
84
84
84
84
78
30
30
78
30
ENDCHAR
STARTCHAR 2642
ENCODING 9794
SWIDTH 800 0
DWIDTH 10 0
BBX 9 10 0 -1
BITMAP
0780
0380
0380
0580
7800
8400
8400
8400
8400
7800
ENDCHAR
STARTCHAR 2660
ENCODING 9824
SWIDTH 800 0
DWIDTH 10 0
BBX 9 10 0 -1
BITMAP
0800
0800
0800
3C00
7E00
FF80
7E00
7E00
3C00
7E00
ENDCHAR
STARTCHAR 2663
ENCODING 9827
SWIDTH 800 0
DWIDTH 10 0
BBX 9 9 0 -1
BITMAP
3C00
7E00
3C00
FF80
FF80
7F80
7E00
3C00
7E00
ENDCHAR
STARTCHAR 2665
ENCODING 9829
SWIDTH 800 0
DWIDTH 10 0
BBX 9 9 0 0
BITMAP
7600
FF80
FF80
FF80
FF80
7E00
3C00
3C00
0800
ENDCHAR
STARTCHAR 2666
ENCODING 9830
SWIDTH 800 0
DWIDTH 10 0
BBX 9 9 0 0
BITMAP
0800
0800
3C00
7E00
FF80
7E00
3E00
3C00
0800
ENDCHAR
ENDFONT
